<?xml version="1.0" standalone="no"?><!DOCTYPE svg PUBLIC "-//W3C//DTD SVG 1.1//EN" "http://www.w3.org/Graphics/SVG/1.1/DTD/svg11.dtd"><svg t="1718718413990" class="icon" viewBox="0 0 1345 1024" version="1.1" xmlns="http://www.w3.org/2000/svg" p-id="32191" xmlns:xlink="http://www.w3.org/1999/xlink" width="168.125" height="128"><path d="M117.028571 0h1111.771429a117.028571 117.028571 0 0 1 117.028571 117.028571v789.942858a117.028571 117.028571 0 0 1-117.028571 117.028571H117.028571a117.028571 117.028571 0 0 1-117.028571-117.028571V117.028571a117.028571 117.028571 0 0 1 117.028571-117.028571z m437.803886 573.820343L536.517486 263.314286h-98.684343l-113.312914 309.160228L317.761829 263.314286H204.8l24.751543 497.371428h120.071314l106.496-281.834057 20.041143 281.834057h120.071314L775.314286 263.314286h-117.3504l-103.131429 310.506057z m531.221943-23.903086l15.535543-89.146514h-185.022172l18.6368-104.886857h218.843429L1170.285714 263.314286H833.038629L746.057143 760.685714h336.544914l16.237714-92.218514H880.347429l21.065142-118.549943h184.641829z" fill="#1178FD" p-id="32192"></path></svg>